<svg width="24" height="21" viewBox="0 0 24 21" fill="none" xmlns="http://www.w3.org/2000/svg">
<path d="M22.005 12.3588L23.9747 3.82754C24.1169 3.21156 23.6413 2.625 22.9996 2.625H6.63367L6.25175 0.78709C6.15658 0.328986 5.74708 0 5.27204 0H1C0.447708 0 0 0.440713 0 0.984375V1.64062C0 2.18429 0.447708 2.625 1 2.625H3.91179L6.83879 16.7112C6.13854 17.1076 5.66667 17.8509 5.66667 18.7031C5.66667 19.9717 6.71133 21 8 21C9.28867 21 10.3333 19.9717 10.3333 18.7031C10.3333 18.0602 10.0647 17.4794 9.63233 17.0625H18.3676C17.9353 17.4794 17.6667 18.0602 17.6667 18.7031C17.6667 19.9717 18.7113 21 20 21C21.2887 21 22.3333 19.9717 22.3333 18.7031C22.3333 17.7937 21.7963 17.0079 21.0175 16.6357L21.2474 15.64C21.3896 15.0241 20.914 14.4375 20.2723 14.4375H9.08821L8.8155 13.125H21.0299C21.4968 13.125 21.9015 12.807 22.005 12.3588Z" fill="#1C1C1C"/>
</svg>
