<svg width="16" height="15" viewBox="0 0 16 15" fill="none" xmlns="http://www.w3.org/2000/svg">
<path d="M14.2857 0H1.71429C1.25963 0 0.823594 0.169324 0.502103 0.470721C0.180612 0.772119 0 1.1809 0 1.60714L0 13.3929C0 13.8191 0.180612 14.2279 0.502103 14.5293C0.823594 14.8307 1.25963 15 1.71429 15H6.61607V9.90033H4.36607V7.5H6.61607V5.67054C6.61607 3.58962 7.9375 2.44018 9.96143 2.44018C10.9307 2.44018 11.9443 2.60223 11.9443 2.60223V4.64464H10.8275C9.72714 4.64464 9.38393 5.28482 9.38393 5.94141V7.5H11.8404L11.4475 9.90033H9.38393V15H14.2857C14.7404 15 15.1764 14.8307 15.4979 14.5293C15.8194 14.2279 16 13.8191 16 13.3929V1.60714C16 1.1809 15.8194 0.772119 15.4979 0.470721C15.1764 0.169324 14.7404 0 14.2857 0Z" fill="white"/>
</svg>
