<svg width="29" height="21" viewBox="0 0 29 21" fill="none" xmlns="http://www.w3.org/2000/svg">
<path d="M28.4506 6.93438C28.6715 6.76484 29 6.92344 29 7.19141V18.375C29 19.8242 27.7822 21 26.2812 21H2.71875C1.21777 21 0 19.8242 0 18.375V7.19688C0 6.92344 0.322852 6.77031 0.549414 6.93984C1.81816 7.89141 3.50039 9.1 9.27773 13.1523C10.4729 13.9945 12.4893 15.7664 14.5 15.7555C16.5221 15.7719 18.5781 13.9617 19.7279 13.1523C25.5053 9.1 27.1818 7.88594 28.4506 6.93438ZM14.5 14C15.8141 14.0219 17.7059 12.4031 18.6574 11.7359C26.1736 6.46953 26.7457 6.01016 28.4789 4.69766C28.8074 4.45156 29 4.06875 29 3.66406V2.625C29 1.17578 27.7822 0 26.2812 0H2.71875C1.21777 0 0 1.17578 0 2.625V3.66406C0 4.06875 0.192578 4.44609 0.521094 4.69766C2.2543 6.00469 2.82637 6.46953 10.3426 11.7359C11.2941 12.4031 13.1859 14.0219 14.5 14Z" fill="#0B5EE8"/>
</svg>
