<svg width="25" height="28" viewBox="0 0 25 28" fill="none" xmlns="http://www.w3.org/2000/svg">
<path d="M0 25.375C0 26.8242 1.19978 28 2.67857 28H22.3214C23.8002 28 25 26.8242 25 25.375V10.5H0V25.375ZM17.8571 14.6562C17.8571 14.2953 18.1585 14 18.5268 14H20.7589C21.1272 14 21.4286 14.2953 21.4286 14.6562V16.8438C21.4286 17.2047 21.1272 17.5 20.7589 17.5H18.5268C18.1585 17.5 17.8571 17.2047 17.8571 16.8438V14.6562ZM17.8571 21.6562C17.8571 21.2953 18.1585 21 18.5268 21H20.7589C21.1272 21 21.4286 21.2953 21.4286 21.6562V23.8438C21.4286 24.2047 21.1272 24.5 20.7589 24.5H18.5268C18.1585 24.5 17.8571 24.2047 17.8571 23.8438V21.6562ZM10.7143 14.6562C10.7143 14.2953 11.0156 14 11.3839 14H13.6161C13.9844 14 14.2857 14.2953 14.2857 14.6562V16.8438C14.2857 17.2047 13.9844 17.5 13.6161 17.5H11.3839C11.0156 17.5 10.7143 17.2047 10.7143 16.8438V14.6562ZM10.7143 21.6562C10.7143 21.2953 11.0156 21 11.3839 21H13.6161C13.9844 21 14.2857 21.2953 14.2857 21.6562V23.8438C14.2857 24.2047 13.9844 24.5 13.6161 24.5H11.3839C11.0156 24.5 10.7143 24.2047 10.7143 23.8438V21.6562ZM3.57143 14.6562C3.57143 14.2953 3.87277 14 4.24107 14H6.47321C6.84152 14 7.14286 14.2953 7.14286 14.6562V16.8438C7.14286 17.2047 6.84152 17.5 6.47321 17.5H4.24107C3.87277 17.5 3.57143 17.2047 3.57143 16.8438V14.6562ZM3.57143 21.6562C3.57143 21.2953 3.87277 21 4.24107 21H6.47321C6.84152 21 7.14286 21.2953 7.14286 21.6562V23.8438C7.14286 24.2047 6.84152 24.5 6.47321 24.5H4.24107C3.87277 24.5 3.57143 24.2047 3.57143 23.8438V21.6562ZM22.3214 3.5H19.6429V0.875C19.6429 0.39375 19.2411 0 18.75 0H16.9643C16.4732 0 16.0714 0.39375 16.0714 0.875V3.5H8.92857V0.875C8.92857 0.39375 8.52679 0 8.03571 0H6.25C5.75893 0 5.35714 0.39375 5.35714 0.875V3.5H2.67857C1.19978 3.5 0 4.67578 0 6.125V8.75H25V6.125C25 4.67578 23.8002 3.5 22.3214 3.5Z" fill="#0B5EE8"/>
</svg>
