<svg width="15" height="15" viewBox="0 0 15 15" fill="none" xmlns="http://www.w3.org/2000/svg">
<path d="M7.5 5.71406C7.1468 5.71419 6.80158 5.81905 6.50797 6.01537C6.21436 6.21169 5.98556 6.49067 5.85049 6.81701C5.71542 7.14336 5.68014 7.50244 5.74913 7.84883C5.81812 8.19522 5.98826 8.51338 6.23806 8.76309C6.48785 9.01279 6.80608 9.18281 7.1525 9.25167C7.49892 9.32053 7.85797 9.28512 8.18427 9.14993C8.51057 9.01473 8.78946 8.78583 8.98567 8.49214C9.18188 8.19846 9.28661 7.8532 9.28661 7.5C9.28625 7.02633 9.09789 6.57218 8.76289 6.23731C8.42789 5.90244 7.97367 5.71424 7.5 5.71406ZM11.6756 4.34129C11.5846 4.11088 11.4473 3.90161 11.2722 3.72646C11.097 3.55131 10.8878 3.41402 10.6574 3.3231C9.95424 3.04554 8.28013 3.10781 7.5 3.10781C6.71987 3.10781 5.04743 3.04319 4.3423 3.3231C4.11189 3.41402 3.90262 3.55131 3.72747 3.72646C3.55232 3.90161 3.41503 4.11088 3.32411 4.34129C3.04687 5.04442 3.10882 6.7202 3.10882 7.49967C3.10882 8.27913 3.04688 9.9529 3.32545 10.6584C3.41636 10.8888 3.55366 11.0981 3.72881 11.2732C3.90396 11.4484 4.11323 11.5856 4.34364 11.6766C5.04676 11.9541 6.72087 11.8919 7.50134 11.8919C8.28181 11.8919 9.95357 11.9565 10.6587 11.6766C10.8891 11.5856 11.0984 11.4484 11.2735 11.2732C11.4487 11.0981 11.586 10.8888 11.6769 10.6584C11.9565 9.95525 11.8922 8.27946 11.8922 7.5C11.8922 6.72054 11.9565 5.0471 11.6769 4.34163L11.6756 4.34129ZM7.5 10.2455C6.95698 10.2455 6.42616 10.0845 5.97466 9.78283C5.52316 9.48115 5.17126 9.05235 4.96346 8.55067C4.75565 8.04899 4.70128 7.49695 4.80722 6.96437C4.91316 6.43179 5.17464 5.94258 5.55861 5.55861C5.94258 5.17464 6.43179 4.91316 6.96437 4.80722C7.49695 4.70128 8.04899 4.75565 8.55067 4.96346C9.05235 5.17126 9.48115 5.52316 9.78283 5.97466C10.0845 6.42616 10.2455 6.95698 10.2455 7.5C10.246 7.86067 10.1753 8.21789 10.0374 8.55119C9.89962 8.88449 9.6974 9.18734 9.44237 9.44237C9.18734 9.6974 8.88449 9.89962 8.55119 10.0374C8.21789 10.1753 7.86067 10.246 7.5 10.2455ZM10.3587 5.28013C10.2319 5.2802 10.108 5.24267 10.0026 5.17229C9.89715 5.10192 9.81496 5.00185 9.7664 4.88476C9.71784 4.76767 9.70511 4.6388 9.7298 4.51447C9.75448 4.39013 9.81549 4.27591 9.9051 4.18626C9.99471 4.0966 10.1089 4.03553 10.2332 4.01078C10.3575 3.98602 10.4864 3.99869 10.6035 4.04719C10.7207 4.09568 10.8208 4.17782 10.8912 4.28322C10.9616 4.38861 10.9992 4.51252 10.9992 4.63929C10.9996 4.72346 10.9833 4.80688 10.9513 4.88476C10.9194 4.96264 10.8724 5.03344 10.813 5.0931C10.7536 5.15276 10.683 5.20012 10.6053 5.23244C10.5276 5.26477 10.4442 5.28143 10.36 5.28147L10.3587 5.28013ZM13.3929 0H1.60714C1.1809 0 0.772119 0.169324 0.470721 0.470721C0.169323 0.772119 0 1.1809 0 1.60714L0 13.3929C0 13.8191 0.169323 14.2279 0.470721 14.5293C0.772119 14.8307 1.1809 15 1.60714 15H13.3929C13.8191 15 14.2279 14.8307 14.5293 14.5293C14.8307 14.2279 15 13.8191 15 13.3929V1.60714C15 1.1809 14.8307 0.772119 14.5293 0.470721C14.2279 0.169324 13.8191 0 13.3929 0ZM12.8196 9.70982C12.7765 10.568 12.5806 11.3283 11.9541 11.9531C11.3277 12.5779 10.568 12.7778 9.71083 12.8186C8.82656 12.8685 6.17545 12.8685 5.29118 12.8186C4.43304 12.7754 3.67533 12.5792 3.04788 11.9531C2.42042 11.327 2.22321 10.5663 2.18237 9.70982C2.13248 8.82522 2.13248 6.17377 2.18237 5.29018C2.22556 4.43203 2.41908 3.67165 3.04788 3.04688C3.67667 2.4221 4.43638 2.22455 5.29118 2.18371C6.17545 2.13382 8.82656 2.13382 9.71083 2.18371C10.569 2.2269 11.329 2.4231 11.9541 3.04922C12.5792 3.67533 12.7788 4.43605 12.8196 5.2942C12.8695 6.17545 12.8695 8.82455 12.8196 9.70982Z" fill="#1C1C1C"/>
</svg>
