<svg width="24" height="24" viewBox="0 0 24 24" fill="none" xmlns="http://www.w3.org/2000/svg">
<path d="M16.2855 7.35484C15.5838 3.03387 13.9286 0 12.0024 0C10.0762 0 8.42105 3.03387 7.7193 7.35484H16.2855ZM7.35632 12C7.35632 13.0742 7.4144 14.1048 7.51603 15.0968H16.484C16.5856 14.1048 16.6437 13.0742 16.6437 12C16.6437 10.9258 16.5856 9.89516 16.484 8.90323H7.51603C7.4144 9.89516 7.35632 10.9258 7.35632 12ZM23.0708 7.35484C21.6866 4.06935 18.8845 1.52903 15.4241 0.503226C16.605 2.13871 17.418 4.60161 17.8439 7.35484H23.0708ZM8.57592 0.503226C5.12039 1.52903 2.31337 4.06935 0.934059 7.35484H6.16092C6.58197 4.60161 7.39504 2.13871 8.57592 0.503226ZM23.5886 8.90323H18.0375C18.1391 9.91935 18.1972 10.9597 18.1972 12C18.1972 13.0403 18.1391 14.0806 18.0375 15.0968H23.5838C23.85 14.1048 24 13.0742 24 12C24 10.9258 23.85 9.89516 23.5886 8.90323ZM5.80762 12C5.80762 10.9597 5.8657 9.91935 5.96733 8.90323H0.416213C0.15487 9.89516 0 10.9258 0 12C0 13.0742 0.15487 14.1048 0.416213 15.0968H5.96249C5.8657 14.0806 5.80762 13.0403 5.80762 12ZM7.7193 16.6452C8.42105 20.9661 10.0762 24 12.0024 24C13.9286 24 15.5838 20.9661 16.2855 16.6452H7.7193ZM15.4289 23.4968C18.8845 22.471 21.6915 19.9306 23.0756 16.6452H17.8488C17.4229 19.3984 16.6098 21.8613 15.4289 23.4968ZM0.934059 16.6452C2.31821 19.9306 5.12039 22.471 8.58076 23.4968C7.39988 21.8613 6.58681 19.3984 6.16092 16.6452H0.934059Z" fill="#1C1C1C"/>
</svg>
