<svg width="21" height="28" viewBox="0 0 21 28" fill="none" xmlns="http://www.w3.org/2000/svg">
<path d="M11.5791 27.4351C19.5251 15.9158 21 14.7335 21 10.5C21 4.70099 16.299 0 10.5 0C4.70099 0 0 4.70099 0 10.5C0 14.7335 1.47492 15.9158 9.42091 27.4351C9.94235 28.1883 11.0577 28.1883 11.5791 27.4351ZM10.5 14.875C8.08374 14.875 6.125 12.9163 6.125 10.5C6.125 8.08374 8.08374 6.125 10.5 6.125C12.9163 6.125 14.875 8.08374 14.875 10.5C14.875 12.9163 12.9163 14.875 10.5 14.875Z" fill="#0B5EE8"/>
</svg>
