<svg width="33" height="23" viewBox="0 0 33 23" fill="none" xmlns="http://www.w3.org/2000/svg">
<path d="M9.9 11.5C13.0917 11.5 15.675 8.9279 15.675 5.75C15.675 2.5721 13.0917 0 9.9 0C6.70828 0 4.125 2.5721 4.125 5.75C4.125 8.9279 6.70828 11.5 9.9 11.5ZM13.86 13.1429H13.432C12.3595 13.6562 11.1684 13.9643 9.9 13.9643C8.63156 13.9643 7.44562 13.6562 6.36797 13.1429H5.94C2.66062 13.1429 0 15.792 0 19.0571V20.5357C0 21.8962 1.10859 23 2.475 23H17.325C18.6914 23 19.8 21.8962 19.8 20.5357V19.0571C19.8 15.792 17.1394 13.1429 13.86 13.1429ZM24.75 11.5C27.4828 11.5 29.7 9.29241 29.7 6.57143C29.7 3.85045 27.4828 1.64286 24.75 1.64286C22.0172 1.64286 19.8 3.85045 19.8 6.57143C19.8 9.29241 22.0172 11.5 24.75 11.5ZM27.225 13.1429H27.0291C26.3123 13.3893 25.5544 13.5536 24.75 13.5536C23.9456 13.5536 23.1877 13.3893 22.4709 13.1429H22.275C21.2231 13.1429 20.2537 13.4458 19.403 13.9335C20.6611 15.2837 21.45 17.0754 21.45 19.0571V21.0286C21.45 21.1415 21.4242 21.2493 21.4191 21.3571H30.525C31.8914 21.3571 33 20.2533 33 18.8929C33 15.715 30.4167 13.1429 27.225 13.1429Z" fill="#0B5EE8"/>
</svg>
