<svg width="18" height="21" viewBox="0 0 18 21" fill="none" xmlns="http://www.w3.org/2000/svg">
<path d="M9 10.5C11.8406 10.5 14.1429 8.1498 14.1429 5.25C14.1429 2.3502 11.8406 0 9 0C6.15938 0 3.85714 2.3502 3.85714 5.25C3.85714 8.1498 6.15938 10.5 9 10.5ZM12.6 11.8125H11.929C11.0371 12.2309 10.0446 12.4688 9 12.4688C7.95536 12.4688 6.96696 12.2309 6.07098 11.8125H5.4C2.41875 11.8125 0 14.2816 0 17.325V19.0312C0 20.1182 0.863839 21 1.92857 21H16.0714C17.1362 21 18 20.1182 18 19.0312V17.325C18 14.2816 15.5813 11.8125 12.6 11.8125Z" fill="#1C1C1C"/>
</svg>
