<svg width="13" height="13" viewBox="0 0 13 13" fill="none" xmlns="http://www.w3.org/2000/svg">
<path d="M6.5 0C2.90927 0 0 2.90927 0 6.5C0 10.0907 2.90927 13 6.5 13C10.0907 13 13 10.0907 13 6.5C13 2.90927 10.0907 0 6.5 0ZM6.5 11.7419C3.60383 11.7419 1.25806 9.39617 1.25806 6.5C1.25806 3.60383 3.60383 1.25806 6.5 1.25806C9.39617 1.25806 11.7419 3.60383 11.7419 6.5C11.7419 9.39617 9.39617 11.7419 6.5 11.7419ZM8.11976 9.00564L5.89456 7.38851C5.81331 7.32823 5.76613 7.23387 5.76613 7.13427V2.83065C5.76613 2.65766 5.90766 2.51613 6.08065 2.51613H6.91935C7.09234 2.51613 7.23387 2.65766 7.23387 2.83065V6.54456L8.98468 7.81835C9.12621 7.92056 9.15504 8.11714 9.05282 8.25867L8.56008 8.9375C8.45786 9.07641 8.26129 9.10786 8.11976 9.00564Z" fill="#767676"/>
</svg>
